<svg width="182" height="52" viewBox="0 0 182 52" xmlns="http://www.w3.org/2000/svg"><g fill="#FFF"><path d="M63.624 20.88v3.918h4.847v2.607h-4.847v6.536H60.56V18.305h8.873v2.576zm9.089-2.575h3.084V33.94h-3.084zm20.71 15.885-6.741-7.347a116 116 0 0 1-3.246-3.777h-.055a85 85 0 0 1 .055 3.604v7.26h-3.02V18.316h2.36l6.026 6.59c.834.909 2.11 2.326 2.944 3.376v-9.944h3.008v15.873zm11.891-9.803c-.173-.466-.4-1.083-.562-1.688h-.055c-.151.584-.389 1.222-.562 1.688l-1.299 3.354h3.744zm3.68 9.565-1.505-3.777h-5.507l-1.494 3.777h-2.975l6.427-15.809h1.742l6.395 15.809zm18.891.238-6.74-7.347a116 116 0 0 1-3.247-3.777h-.054a85 85 0 0 1 .054 3.604v7.26h-3.019V18.316h2.38l6.028 6.59c.833.909 2.164 2.326 2.943 3.376v-9.944h3.008v15.873zm16.859-12.422a7.3 7.3 0 0 0-3.571-.93 5.26 5.26 0 0 0-5.562 5.345c0 3.397 2.64 5.334 5.66 5.334a7.4 7.4 0 0 0 3.624-.779l-.27 2.716a8.35 8.35 0 0 1-3.798.66c-3.971 0-8.332-2.716-8.332-7.985s4.415-8.018 8.332-8.018a9.2 9.2 0 0 1 4.49.984zm4.1-3.463h3.084V33.94h-3.084zm13.916 6.082a24 24 0 0 1-.563-1.688c-.152.584-.4 1.222-.563 1.688l-1.298 3.354h3.765zm3.678 9.565-1.493-3.777h-5.518l-1.493 3.777h-2.965l6.416-15.809h1.742l6.395 15.809zm5.854-15.647v15.636h9.49v-2.575h-6.395v-13.06zM2.705 2.735h46.527v46.527H2.705zM0 51.989h51.938V.052H0z"/><path d="M36.648 12.668h4.902v26.878h-4.902zM27.69 33.162a8.1 8.1 0 0 1-4.762 1.46 8.656 8.656 0 1 1 5.237-15.397l4.274-3.57a14.207 14.207 0 1 0 1.007 19.682c-.12-.163-2.933-4.383-5.757-2.164"/></g></svg>