<svg xmlns="http://www.w3.org/2000/svg" viewBox="95.817 92.776 343.879 200" stroke-miterlimit="2" stroke-linejoin="round" fill-rule="evenodd" clip-rule="evenodd" style="max-height:500px" width="343.879" height="200"><g fill-rule="nonzero"><path fill="#010101" d="M152.65 128.6s0.181 0.431 0.456 1.174a22.876 22.321 0 0 0 -0.258 -1.255q-0.095 0.036 -0.197 0.081"/><path fill="#010101" d="M152.65 128.6s0.181 0.431 0.456 1.174a22.876 22.321 0 0 0 -0.258 -1.255q-0.095 0.036 -0.197 0.081"/><path fill="#010101" d="M152.65 128.6s0.181 0.431 0.456 1.174a22.876 22.321 0 0 0 -0.258 -1.255q-0.095 0.036 -0.197 0.081"/><g fill="#61b510"><path d="M382.031 169.78h-49.767a7.625 7.441 0 0 1 2.795 1.73 10.827 10.565 0 0 1 1.953 2.61 14.228 13.883 0 0 1 1.537 5.464v27.436a13.572 13.243 0 0 1 -1.868 5.484 12.658 12.351 0 0 1 -1.921 2.403 10.218 9.97 0 0 1 -2.498 1.792h29.513a7.32 7.143 0 0 1 -3.126 -1.582 9.456 9.226 0 0 1 -2.042 -2.553 11.132 10.863 0 0 1 -1.11 -3.14 18.3 17.856 0 0 1 -0.334 -3.402v-10.552q2.525 0 4.747 0.143a12.183 12.183 0 0 1 3.997 0.91 7.958 7.958 0 0 1 3.064 2.347 11.285 11.011 0 0 1 1.957 4.457V181.863a18.3 17.856 0 0 1 -2.468 4.191 8.234 8.035 0 0 1 -2.854 2.23 10.37 10.119 0 0 1 -3.634 0.881q-2.047 0.142 -4.81 0.144v-12.899l9.017 0.054q2.1 0 4.355 0.176a26.382 25.744 0 0 1 4.389 0.706c1.419 0.352 2.791 0.863 4.088 1.523a11.437 11.159 0 0 1 3.395 2.64q0.53 0.595 0.962 1.261c0.298 0.442 0.521 0.927 0.66 1.437zm4.747 0v17.77a10.675 10.417 0 0 1 2.224 -5.076 13.572 13.243 0 0 1 4.178 -3.34 17.385 16.964 0 0 1 5.29 -1.731 22.266 21.725 0 0 1 5.618 -0.234v30.445a11.132 10.863 0 0 1 -0.481 2.28 10.523 10.267 0 0 1 -1.564 2.991 11.132 10.863 0 0 1 -2.431 2.347 9.76 9.523 0 0 1 -3.16 1.466h31.559a8.234 8.035 0 0 1 -3.489 -1.437 10.218 9.97 0 0 1 -2.524 -2.61 12.048 11.756 0 0 1 -1.535 -3.315 13.726 13.393 0 0 1 -0.511 -3.608v-28.56h1.563q1.968 0.044 3.906 0.38c1.657 0.272 3.272 0.746 4.809 1.407a13.496 13.17 0 0 1 4.386 3.08 10.781 10.52 0 0 1 2.645 5.338v-17.595z"/><path d="M302.574 214.294a10.37 10.119 0 0 1 -2.553 1.671q-1.264 0.558 -1.625 0.734h33.961a5.795 5.655 0 0 1 -1.595 -0.585 15.25 14.88 0 0 1 -1.411 -0.881 17.385 16.964 0 0 1 -3.246 -2.903 21.35 20.833 0 0 1 -2.344 -3.4 32.025 31.249 0 0 1 -1.831 -3.99l-2.468 -7.15 -3.334 -9.653 -6.431 -18.357h-28.191a10.675 10.417 0 0 1 2.557 0.97 8.843 8.843 0 0 1 1.952 1.523 5.502 5.502 0 0 1 1.381 2.496 5.948 5.804 0 0 1 0 2.579 16.165 15.773 0 0 1 -0.779 2.521 166.225 162.196 0 0 0 -1.835 4.839 15.25 14.88 0 0 1 -0.406 1.031l-5.093 12.84q-0.419 1.116 -1.264 3.286 -0.841 2.169 -1.891 4.517c-1.051 2.347 -1.443 3.031 -2.224 4.399a11.591 11.309 0 0 1 -2.194 2.932 25.925 25.297 0 0 1 -2.105 1.526q-1.08 0.702 -1.711 1.053a7.625 7.441 0 0 0 -0.691 0.413h25.365a7.778 7.589 0 0 1 -4.539 -2.758 8.846 8.631 0 0 1 -1.712 -4.984q0.04 -0.836 0.273 -1.643 0.266 -1.053 0.66 -2.141 0.386 -1.086 0.811 -2.082c0.276 -0.665 0.481 -1.176 0.599 -1.526H302.908q0.179 0.472 0.482 1.321 0.3 0.848 0.63 1.73 0.331 0.88 0.603 1.702 0.267 0.82 0.388 1.229a5.993 5.848 0 0 1 -0.301 3.988 9.15 8.928 0 0 1 -2.134 2.758m-12.351 -18.298 5.049 -15.247 5.289 15.248z"/><path d="M251.97 193.3a12.963 12.648 0 0 0 3.349 -2.163l0.313 -0.305q0.696 -0.669 1.291 -1.43c0.05 -0.067 0.11 -0.131 0.161 -0.199a11.895 11.606 0 0 0 2.678 -8.457h-0.003a10.37 10.119 0 0 0 -1.033 -3.84 13.726 13.393 0 0 0 -1.292 -2.082 8.997 8.78 0 0 0 -3.064 -2.64 17.08 16.666 0 0 0 -3.968 -1.527 25.925 25.297 0 0 0 -4.295 -0.701 47.275 46.129 0 0 0 -4.059 -0.178h-33.057a8.693 8.482 0 0 1 3.093 1.438 8.388 8.184 0 0 1 2.133 2.725 11.437 11.159 0 0 1 1.023 4.867q0.062 1.53 0.063 3.112v24.042a14.183 13.839 0 0 1 -0.394 3.14 14.487 14.136 0 0 1 -1.141 3.079 10.675 10.417 0 0 1 -1.923 2.638 9.15 8.928 0 0 1 -2.735 1.879h28.552q-0.938 -0.333 -1.836 -0.765a7.015 6.844 0 0 1 -1.891 -1.347 8.234 8.035 0 0 1 -1.594 -2.348 12.2 11.904 0 0 1 -0.928 -3.811 59.475 58.033 0 0 1 -0.244 -6.451q0.061 -3.282 0.063 -6.449h1.923q1.326 0 2.57 -0.01c7.53 17.158 10.149 21.182 17.643 21.182h16.49c-5.645 0 -12.859 -12.897 -17.89 -23.399m-21.761 -4.167v-12.433q2.224 0 4.418 -0.089a12.2 11.904 0 0 1 3.935 0.411 5.404 5.404 0 0 1 2.826 1.877 6.848 6.848 0 0 1 1.08 4.254 5.948 5.804 0 0 1 -1.171 3.926 5.703 5.566 0 0 1 -2.973 1.731 14.793 14.433 0 0 1 -3.965 0.384 135.725 132.435 0 0 0 -4.149 -0.061"/></g><path fill="#f7760d" d="M218.36 115.276a12.764 12.454 0 0 0 -7.432 10.642l-0.011 0.003a12.734 12.425 0 0 0 -12.03 -1.407q0.241 0.779 0.584 1.523a12.704 12.395 0 0 0 7.861 6.727 24.949 24.344 0 0 1 -7.403 7.239 9.074 8.853 0 0 1 -4.299 1.387c-3.934 0.455 -7.776 -1.489 -9.663 -4.886 -2.397 4.184 -7.697 5.957 -12.221 4.089a24.864 24.26 0 0 1 -11.425 -14.331q0.106 -0.006 0.214 -0.018a12.719 12.411 0 0 0 10.117 -7.085 12.719 12.411 0 0 0 -12.355 -1.525c0.131 -4.358 -3.222 -10.914 -7.329 -13.297a16.774 16.369 0 0 0 -1.619 -0.79l-0.364 -0.145 -0.25 0.311a12.2 11.904 0 0 0 -0.889 1.281c-2.424 4.023 -1.756 11.246 0.511 15.007a12.704 12.395 0 0 0 -10.07 7.146q0.515 0.365 1.067 0.681a12.688 12.381 0 0 0 11.291 0.77l0.199 -0.081a24.811 24.211 0 0 1 -1.389 14.983l-0.019 -0.067c-0.031 0.118 -0.076 0.241 -0.112 0.365q-0.21 0.456 -0.437 0.909 -0.552 1.094 -1.216 2.125c-3.069 3.766 -8.624 4.67 -12.783 2.083a9.715 9.479 0 0 1 -6.145 8.768 9.607 9.374 0 0 1 -2.686 0.616 25.01 24.404 0 0 1 -11.445 -2.923 12.688 12.381 0 0 0 3.565 -9.593c-0.043 -0.547 -0.125 -1.556 -0.235 -2.077 -4.394 0.538 -8.02 4.359 -9.848 6.414h-0.012c-2.426 -2.053 -6.885 -5.717 -11.767 -5.356a12.963 12.648 0 0 0 -3.26 0.952 164.7 160.707 0 0 1 15.541 12.933c3.442 3.219 6.747 6.652 9.902 10.165 4.386 4.895 11.878 14.78 11.885 14.777a10.127 9.88 0 0 0 7.208 2.642 0.716 0.7 0 0 0 0.609 -0.656c0.03 -0.258 -0.424 -0.415 -0.661 -0.517a5.734 5.595 0 0 1 -3.626 -3.929c-1.411 -4.311 11.806 -12.094 31.126 -16.881 19.323 -4.781 34.841 -4.2 35.737 0.249a5.749 5.61 0 0 1 -1.242 5.15c-0.156 0.201 -0.482 0.556 -0.318 0.767a0.722 0.705 0 0 0 0.861 0.295 10.141 9.896 0 0 0 5.017 -5.688c0.84 -2.465 2.074 -12.253 3.5 -18.604a162.858 158.91 0 0 1 10.977 -32.048 12.658 12.351 0 0 0 -3.211 0.905"/><path fill="#61b510" d="M150.106 173.799c10.434 -4.35 21.422 -7.303 32.668 -8.779s21.936 2.107 21.936 27.23 -18.316 39.464 -43.246 39.464c-24.926 0 -38.071 -10.721 -38.071 -22.142s8.414 -13.242 12.329 -13.242c3.91 0 10.986 3.448 10.986 12.398 0 0 -7.044 -1.687 -7.044 4.258s8.327 9.648 19.747 9.648c11.417 0 27.538 -4.882 27.538 -26.629 0 -23.206 -11.004 -24.243 -18.655 -24.243v39.805a3.848 3.755 0 0 0 4.002 3.5c2.075 -0.094 -4.024 3.314 -13.98 3.314s-12.793 -3.118 -12.793 -3.118 4.713 0.017 4.713 -4.039c0 -4.053 -0.129 -37.425 -0.129 -37.425"/><path fill="#FFFFFF" d="M426.2 256.984a15.25 14.88 0 0 0 -1.182 -2.569 10.981 10.714 0 0 0 -3.306 -3.528l-0.008 -0.008q-0.249 -0.177 -0.492 -0.343l-0.033 -0.021a22.876 22.321 0 0 0 -2.303 -1.378c-5.659 -2.94 -11.474 -2.953 -16.138 -4.023a19.825 19.344 0 0 1 -2.178 -0.627q-0.39 -0.148 -0.776 -0.315a11.437 11.159 0 0 1 -2.735 -1.673 4.804 4.688 0 0 1 -1.502 -2.343 2.745 2.678 0 0 1 0.24 -2.23 7.717 7.53 0 0 1 2.377 -2.258 11.742 11.458 0 0 1 3.275 -1.378 14.183 13.839 0 0 1 3.816 -0.441 15.72 15.72 0 0 1 3.941 0.559 28.886 28.886 0 0 1 4.294 1.408c0.998 0.431 1.939 0.982 2.797 1.64q0.628 0.498 1.2 1.06 0.6 0.582 1.264 1.23l1.472 1.437q0.811 0.792 2.012 1.904v-17.182s-1.348 3.285 -6.699 3.285a42.7 41.664 0 0 1 -4.479 -0.352 462.763 462.763 0 0 1 -4.63 -0.737 28.365 27.677 0 0 0 -5.227 -0.318 26.536 25.892 0 0 0 -7.122 0.938 19.215 18.749 0 0 0 -6.159 2.842 14.091 13.749 0 0 0 -5.952 11.702 11.437 11.159 0 0 0 1.415 5.922 14.793 14.433 0 0 0 2.735 3.241l0.014 0.012c0.032 0.032 0.072 0.061 0.104 0.092l0.36 0.295q0.283 0.23 0.573 0.453c3.895 2.916 9.394 4.328 15.753 5.748 0.124 0.028 0.235 0.048 0.356 0.074l0.047 0.01q0.98 0.212 1.963 0.488c1.208 0.326 2.377 0.779 3.486 1.349a7.467 7.467 0 0 1 2.348 1.816c0.544 0.623 0.726 1.478 0.478 2.262a4.865 4.747 0 0 1 -2.402 3.164 9.607 9.374 0 0 1 -4.058 1.055 17.842 17.41 0 0 1 -4.6 -0.35 30.5 29.76 0 0 1 -4.026 -1.058 36.295 35.416 0 0 1 -7.392 -3.635 37.362 36.457 0 0 1 -4.356 -3.402 24.705 24.107 0 0 1 -3.818 -4.456v20.488a16.928 16.517 0 0 1 7.436 -2.182l0.022 0.021a16.774 16.369 0 0 1 2.55 -0.234 21.615 21.615 0 0 1 3.906 0.293q1.962 0.322 3.878 0.85 2.062 0.521 4.177 0.762 2.11 0.237 4.239 0.237a32.025 31.249 0 0 0 7.119 -0.794 19.215 18.749 0 0 0 6.433 -2.64 14.945 14.582 0 0 0 4.66 -4.806 14.076 13.735 0 0 0 1.745 -7.301 21.045 20.535 0 0 0 -0.903 -4.05M315.131 238.57q0 -1.116 0.121 -2.406 0.119 -1.283 0.482 -2.519a10.065 9.821 0 0 1 0.988 -2.287 6.557 6.398 0 0 1 1.654 -1.821 5.186 5.059 0 0 1 2.405 -0.994h-22.056a5.895 5.895 0 0 1 3.332 1.233 7.625 7.441 0 0 1 2.044 2.609 11.495 11.495 0 0 1 1.022 3.372q0.262 1.692 0.273 3.401v20.996l-20.676 -31.61h-25.004a5.292 5.163 0 0 1 3.304 1.2 7.32 7.143 0 0 1 1.923 2.669 13.726 13.393 0 0 1 0.903 3.4q0.228 1.667 0.24 3.346c0 0.467 0.008 1.164 0.028 2.08v22.233a71.675 69.937 0 0 1 -0.089 2.958 53.375 52.082 0 0 1 -0.179 2.287 10.675 10.417 0 0 1 -0.482 2.258 7.93 7.737 0 0 1 -1.019 2.025 5.643 5.506 0 0 1 -1.744 1.582 3.812 3.721 0 0 1 -0.54 0.266 10.675 10.417 0 0 1 -0.752 0.262 7.625 7.441 0 0 0 -0.693 0.234 1.525 1.488 0 0 1 -0.359 0.116h21.574a27.449 26.784 0 0 1 -1.531 -0.85 13.726 13.393 0 0 1 -1.262 -0.878 8.234 8.035 0 0 1 -1.052 -0.97 8.54 8.333 0 0 1 -1.802 -3.873 24.401 23.809 0 0 1 -0.421 -4.278v-20.659l20.345 31.507h24.673a5.186 5.059 0 0 1 -2.405 -0.996 6.557 6.398 0 0 1 -1.654 -1.82 10.065 9.821 0 0 1 -0.988 -2.284 14.03 13.69 0 0 1 -0.483 -2.524 27.449 26.784 0 0 1 -0.119 -2.405zm-65.913 18.232V238.2q0.054 -1.26 0.279 -2.501a11.132 10.863 0 0 1 1.02 -3.023 8.234 8.035 0 0 1 1.983 -2.431 9.76 9.523 0 0 1 3.188 -1.705h-28.732a8.083 7.887 0 0 1 3.185 1.671 10.218 9.97 0 0 1 2.195 3.2 14.335 13.988 0 0 1 0.994 5.746v24.623q0 1.174 -0.063 2.825a10.065 9.821 0 0 1 -1.022 4.488 9.334 9.334 0 0 1 -2.133 2.696c-0.145 0.121 -0.313 0.234 -0.476 0.352 -7.045 -2.8 -14.382 -9.705 -19.816 -17.988 -3.2 -4.874 -6.812 -11.332 -9.822 -16.973 2.829 -3.454 5.535 -6.666 7.719 -9.117a31.416 30.653 0 0 1 15.471 -7.982H199.735s2.15 3.008 -0.947 6.666l-15.544 18.337v-15.052l-0.5 0.213a44.213 44.213 0 0 1 -2.067 0.757 50.325 49.106 0 0 1 -6.568 1.741 51.85 50.593 0 0 1 -2.354 0.417q-2.509 0.45 -5.053 0.621v27.468l-0.101 2.11a31.44 31.44 0 0 1 -0.207 1.716 15.098 14.732 0 0 1 -1.102 3.755 9.226 9.002 0 0 1 -2.2 3.019 6.711 6.547 0 0 1 -3.677 1.611h30.088a5.597 5.461 0 0 1 -3.165 -1.812 10.37 10.119 0 0 1 -1.927 -3.392 21.35 20.833 0 0 1 -0.966 -4.36 50.325 49.106 0 0 1 -0.308 -4.662c-0.003 -0.285 -0.008 -0.561 -0.008 -0.84 1.198 -1.54 3.051 -3.923 5.263 -6.734a257.726 251.478 0 0 0 3.758 5.997c6.218 9.605 11.182 15.817 19.069 15.817 7.89 0 44.344 -0.018 44.344 -0.018a10.37 10.119 0 0 1 -3.184 -1.964 11.132 10.863 0 0 1 -2.192 -3.227 12.2 11.904 0 0 1 -0.972 -4.537zm104.986 -4.627a5.795 5.655 0 0 1 1.566 2.642c0.282 1.1 0.398 2.235 0.344 3.369a61 59.521 0 0 0 0 3.724q0 0.938 0.062 2.202a6.557 6.398 0 0 1 -0.34 2.404 4.025 3.929 0 0 1 -1.568 1.935 6.253 6.1 0 0 1 -3.544 0.793 7.533 7.351 0 0 1 -4.453 -1.174 8.846 8.631 0 0 1 -2.697 -2.989 14.335 13.988 0 0 1 -1.388 -3.833v0.028a42.7 41.664 0 0 1 -0.146 -18.394 13.42 13.095 0 0 1 1.506 -3.817 9.15 8.928 0 0 1 2.725 -2.871 7.93 7.737 0 0 1 4.202 -1.262 10.218 10.218 0 0 1 2.257 0.147q1.19 0.205 2.256 0.439a30.957 30.207 0 0 1 10.062 4.018c3.471 2.219 6.283 4.466 7.497 7.712v-21.271a7.533 7.351 0 0 1 -4.129 4.435 11.591 11.309 0 0 1 -1.828 0.445q-0.213 0.027 -0.442 0.044 -0.139 0.009 -0.283 0.01a22.876 22.321 0 0 1 -3.542 -0.287 21.35 20.833 0 0 1 -3.76 -0.882 48.8 47.617 0 0 0 -3.573 -1.027 24.401 23.809 0 0 0 -3.446 -0.587 35.075 34.225 0 0 0 -3.577 -0.172 31.416 30.653 0 0 0 -7.21 0.789 25.468 24.85 0 0 0 -6.456 2.405 22.266 21.725 0 0 0 -5.391 4.047 21.35 20.833 0 0 0 -3.231 4.34l-0.028 0.048a35.426 34.567 0 0 0 -2.21 19.928 25.545 25.545 0 0 0 1.323 3.95q0.421 0.974 0.921 1.88a20.588 20.088 0 0 0 5.015 6.071 20.893 20.386 0 0 0 7.084 3.724 28.1 28.1 0 0 0 9.059 1.143 18.909 18.452 0 0 0 4.106 -0.584 96.074 93.745 0 0 0 4.233 -1.176q2.132 -0.644 4.295 -1.232a18.909 18.452 0 0 1 4.233 -0.675 12.81 12.5 0 0 1 4.074 0.47 9.76 9.523 0 0 1 3.822 2.142v-14.193q0.007 -1.563 0.253 -3.108a12.963 12.648 0 0 1 0.874 -3.08 8.388 8.184 0 0 1 1.759 -2.551 6.711 6.547 0 0 1 2.823 -1.643h-26.834a6.878 6.878 0 0 1 3.729 1.525"/></g></svg>