<svg xmlns="http://www.w3.org/2000/svg" viewBox="0 -15 103.3 75" xml:space="preserve"><path d="M11.1 3.8v13.9s4.9 0 7.5-.2c2.1-.4 2.4-.6 2.8-2.6l.8-3h2.2l-.4 6.5.2 6.8H22l-.6-2.6c-.6-1.9-1.3-2.3-2.8-2.4-1.9-.2-7.5-.2-7.5-.2v11.7c0 2.2 1.1 3.2 3.8 3.2h7.9c2.4 0 4.9-.2 6.4-3.8l2-4.5h1.9c-.2.9-1.1 9.2-1.3 11.1 0 0-7.1-.2-10.1-.2H0v-2l2.6-.6c1.9-.4 2.5-.9 2.5-2.4 0 0 .2-5.1.2-13.5S5.1 5.5 5.1 5.5c0-1.7-.6-2.1-2.5-2.4L0 2.4v-2l7.9.2h15C25.9.5 31 0 31 0s-.2 3.2-.4 10.7h-2.1l-.8-2.6C27 4.7 25.9 3 23.8 3H12c-.9 0-.9.2-.9.8m30.4 1.4h2.3v7.9l7.7-.4-.4 3.6-7.5-.6v13.9c0 3.9 1.3 5.5 3.6 5.5 2 0 3.6-1.1 4.1-2.1l1.1 1.3c-1.1 2.6-4.3 3.9-7.3 3.9-3.7 0-6.8-2.2-6.8-6.6V15.9h-4.5V14c3.8-.3 6.6-2.6 7.7-8.8m16.2 24.3 1.5 3.6c.6 1.5 1.9 3 4.9 3 3.2 0 4.5-1.7 4.5-3.8 0-6.4-12.6-4.5-12.6-13.2 0-4.9 3.9-7.2 9-7.2 2.3 0 5.6.4 7.3 1.1-.4 1.9-.6 4.3-.6 6.2l-1.9.2-1.3-3.8c-.4-.9-1.9-1.7-3.8-1.7-2.3 0-4.5.9-4.5 3.4 0 5.8 13 4.5 13 13.2 0 4.9-4.3 7.5-9.6 7.5-3.9 0-7.9-1.5-7.9-1.5.4-2.2.2-4.7 0-7.1.1.1 2 .1 2 .1m14.6 18c.6-2.1.9-4.7 1.3-7.1l2.1-.2.8 3.9c.2.9.7 1.7 2.2 1.7 2.4 0 5.6-1.5 8.7-6.8-1.3-3.2-5.3-13.5-8.9-21.4-.9-2.1-1.1-2.3-2.4-2.6l-1-.4v-1.9l5.7.2 6.9-.4v1.9l-1.7.4c-1.3.2-1.9.9-1.9 1.7 0 .2 0 .4.2.8.4 1.1 3.4 9.6 5.6 15.2 1.9-3.9 5.4-12.8 6-14.3.2-.8.4-.9.4-1.5 0-1-.6-1.5-1.9-1.9l-1.3-.4v-1.9l5.3.2 4.9-.2v1.9l-.9.7c-1.9.8-2.1.9-2.8 2.5L91.3 37c-4.9 11.1-10 12-13.5 12-2.3 0-4-.6-5.5-1.5" style="fill:#fff"/></svg>