<svg xml:space="preserve" style="max-height:500px" viewBox="0 0 1102.041 200" y="0" x="0" xmlns="http://www.w3.org/2000/svg" id="Layer_1" version="1.1" width="1102.041" height="200"><style>.st0{fill:#fff}</style><path d="M7.064 2.59h20.722c4.003 0 7.064 3.061 7.064 7.064v85.243c0 1.884 1.648 3.532 3.532 3.532h48.273c4.003 0 7.064 3.061 7.064 7.064v15.306c0 4.003-3.061 7.064-7.064 7.064H7.064c-4.003 0-7.064-3.061-7.064-7.064V9.655c0-4.003 3.061-7.064 7.064-7.064m107.378 0h82.418c4.003 0 7.064 3.061 7.064 7.064v15.542c0 4.003-3.061 7.064-7.064 7.064h-51.57c-1.884 0-3.532 1.648-3.532 3.532v12.009c0 1.884 1.648 3.532 3.532 3.532h45.448c4.003 0 7.064 3.061 7.064 7.064v13.187c0 4.003-3.061 7.064-7.064 7.064H145.29c-1.884 0-3.532 1.648-3.532 3.532v12.716c0 1.884 1.648 3.532 3.532 3.532h52.512c4.003 0 7.064 3.061 7.064 7.064v15.306c0 4.003-3.061 7.064-7.064 7.064h-83.359c-4.003 0-7.064-3.061-7.064-7.064V9.655c0-4.003 3.297-7.064 7.064-7.064m103.611 62.873v-.235C218.053 28.728 246.782 0 285.636 0c18.838 0 32.967 4.945 44.976 13.658 3.297 2.355 3.768 7.064 1.177 10.126l-11.538 13.658c-2.355 2.826-6.593 3.297-9.655 1.177-7.3-4.945-15.071-7.771-24.961-7.771-18.132 0-32.025 15.306-32.025 34.38v.235c0 20.251 14.129 34.851 33.909 34.851 6.358 0 11.538-.942 16.013-3.061 2.59-1.177 4.003-3.768 4.003-6.358V83.36c0-1.884-1.648-3.532-3.532-3.532h-14.129c-4.003 0-7.064-3.061-7.064-7.064V61.461c0-4.003 3.061-7.064 7.064-7.064h43.564c4.003 0 7.064 3.061 7.064 7.064v43.564c0 3.768-1.884 7.535-4.945 9.655-12.716 8.948-29.435 15.542-49.451 15.542-38.854.235-68.053-26.609-68.053-64.757m186.5-63.817h17.896c4.71 0 8.948 2.826 10.832 7.3l46.154 109.262c1.884 4.71-1.413 9.89-6.593 9.89h-18.603c-4.71 0-9.184-2.826-10.832-7.3l-4.945-12.245c-.706-1.884-2.355-2.826-4.474-2.826h-41.915c-1.884 0-3.768 1.177-4.474 3.061l-4.71 12.009c-1.884 4.474-6.122 7.3-10.832 7.535h-17.896c-4.945 0-8.477-5.181-6.593-9.89L393.722 9.182c1.648-4.71 5.887-7.535 10.832-7.535m21.193 73.469L415.15 48.271c-.706-2.119-3.532-2.119-4.474 0l-10.362 26.847c-.706 1.648.471 3.297 2.119 3.297h21.193c1.648 0 2.826-1.648 2.119-3.297m99.608 19.78V9.655c0-4.003-3.061-7.064-7.064-7.064h-20.722c-4.003 0-7.064 3.061-7.064 7.064v111.146c0 4.003 3.061 7.064 7.064 7.064h56.044c3.297 0 6.593-1.413 8.713-4.003l17.425-19.78a3.49 3.49 0 0 0-2.59-5.887H528.65c-1.648.235-3.297-1.413-3.297-3.297m147.174 21.664v-.471c0-36.028 28.964-65.228 67.582-65.228s67.347 28.728 67.347 64.757v.471c0 36.028-28.964 65.228-67.582 65.228s-67.347-28.964-67.347-64.757m99.372 0v-.471c0-18.132-12.951-33.909-32.261-33.909s-31.79 15.306-31.79 33.438v.471c0 18.132 12.951 33.909 32.025 33.909s32.025-15.542 32.025-33.438m48.273 0v-.471c0-36.028 28.964-65.228 67.582-65.228S955.1 79.591 955.1 115.62v.471c0 36.028-28.964 65.228-67.582 65.228s-67.347-28.964-67.347-64.757m99.372 0v-.471c0-18.132-12.951-33.909-32.261-33.909s-31.79 15.306-31.79 33.438v.471c0 18.132 12.951 33.909 32.025 33.909s32.025-15.542 32.025-33.438m87.598-2.826c-1.177-1.884-4.239-1.177-4.239 1.177v56.75c0 4.003-3.061 7.064-7.064 7.064h-19.78c-4.003 0-7.064-3.061-7.064-7.064V60.518c0-4.003 3.061-7.064 7.064-7.064h23.077c4.003 0 8.006 2.119 10.126 5.651l24.492 39.796c.706 1.177 2.119 1.413 3.297.706l.706-.706 24.255-39.796c2.119-3.532 5.887-5.651 10.126-5.651h23.077c4.003 0 7.064 3.061 7.064 7.064v111.146c0 4.003-3.061 7.064-7.064 7.064h-20.487c-4.003 0-7.064-3.061-7.064-7.064v-56.986c0-2.355-3.061-3.297-4.239-1.177l-25.196 38.383a3.52 3.52 0 0 1-5.887 0z" class="st0"/><path d="M661.696 53.454h-75.353c-3.297 0-6.593 1.413-8.713 4.003l-17.425 19.545a3.49 3.49 0 0 0 2.59 5.887h52.512c2.119 0 3.061 2.355 1.884 4.003l-56.279 63.579c-1.884 2.119-3.061 4.945-3.061 7.771V171.9c0 4.003 3.061 7.064 7.064 7.064h97.724c4.003 0 7.064-3.061 7.064-7.064v-15.306c0-4.003-3.061-7.064-7.064-7.064h-51.57c-2.119 0-3.061-2.355-1.884-4.003l56.279-63.579c1.884-2.119 3.061-4.945 3.061-7.771V60.519c.235-4.003-3.061-7.064-6.829-7.064" class="st0"/></svg>