<svg xml:space="preserve" viewBox="-808.2 166 1515.2 187.771" y="0" x="0" xmlns="http://www.w3.org/2000/svg" id="Layer_1" version="1.1"><style>.st0{fill:#fff}</style><g id="Symbols"><g transform="translate(-18 -94)" id="_x371_-Utility-_x2F_-LST-Experience-_x2F_-Header-images-_x2F_-News"><g transform="translate(18 94)" id="OG"><path class="st0" id="Path" d="M-477.9 172.2h-26.5l-31.4 149.2h103l4.6-22.5h-76.4z"/><path d="M685.5 221.8c3.4 0 6.4-.2 6.4-3.8 0-3.2-2.7-3.5-5.3-3.5h-5.1v7.3zm-7.7-10.7h9.5c5.4 0 8.3 2.3 8.3 7 0 4.3-2.9 6.3-6.6 6.7l7 10.4h-3.7l-6.8-10.1h-4v10.1h-3.7zm25.5 11.9c0-9.5-7.7-17.3-17.2-17.3s-17.2 7.7-17.2 17.3c0 9.5 7.7 17.2 17.2 17.2 9.5.1 17.2-7.6 17.2-17.2m-17.2-20.5c11.5 0 20.9 9.2 20.9 20.6s-9.3 20.6-20.9 20.6-20.9-9.2-20.9-20.6 9.4-20.6 20.9-20.6" class="st0" id="Fill-83"/><path class="st0" id="Fill-35" d="m621.1 202.5-47.4 81.9-11.9-81.9h-32.3l-25 119h24.8l15.4-79.7 12.7 79.7h19.7l45-78.7-17.3 78.7h24.8l24.9-119z"/><path d="M466.8 271H439l22.1-38.5zm-12.6-68.5-72.4 119h27.8l17.8-30.1h42.2l4.7 30.1h25.9l-21-119z" class="st0" id="Fill-33"/><path class="st0" id="Fill-31" d="M322.8 270.9h59.7l4.5-21.4h-59.6l5.2-24.7h64.3l4.7-22.3h-89.5L287 321.4h90l4.7-22.3h-64.8z"/><path d="M221.9 223.9h26.2c12.7 0 18.1 3.7 18.1 12.3 0 15.8-15.2 18.2-24.3 18.2h-26.4zm69.8 10.2c0-20.4-13.9-31.6-39.1-31.6h-52.2l-25 119h25.9l9.9-46.9h22c12.2 0 19.1.5 19.1 10.7 0 4-.5 7.9-1 12-.5 4.2-1 8.5-1 12.9 0 3.7.4 6.7 1.4 9.6l.6 1.8H280l-2.4-3.9c-1.5-2.4-1.7-5.4-1.7-8.1-.1-3.9.4-7.8.9-11.9.5-3.8.9-7.7.9-11.6 0-6.3-1-14.6-8.2-19.9 14.4-4.9 22.2-16 22.2-32.1" class="st0" id="Fill-29"/><path class="st0" id="Fill-27" d="M193.7 202.5H93.1l-4.6 22.3h38l-20.3 96.7h25.5l20.4-96.7h36.8z"/><path d="M29 168.6c-35.9 0-56.5 19.4-56.5 46.4 0 28.4 28 35.1 41.4 38.7 18.7 5 36.3 9.2 36.3 26.1 0 17.4-19.3 23.8-33.8 23.8-22.1 0-35.9-8.4-34.8-31.6h-25.5c-1 37.3 21.9 53 57.6 53 45.8 0 63-25.1 63-48.3 0-31.3-24.6-37-46.1-42.4C13.9 230.1-1 226.5-1 211.9-1 192 21.3 190 28.6 190c20.6 0 30.8 7.7 31 26.3H85c1.3-35.1-24.4-47.7-56-47.7" class="st0" id="Fill-25"/><path class="st0" id="Fill-23" d="M-32.4 202.5h-100.5l-4.7 22.3h38.1l-20.4 96.7h25.6l20.4-96.7h36.7z"/><path class="st0" id="Fill-21" d="M-174.9 247.7h-48.7l9.6-45.2h-25.6l-25.1 119h25.6l10.8-51.4h48.8l-10.9 51.4h25.6l25.1-119h-25.6z"/><path d="m-316.9 256.4-4.3 20.3h31.6c-3.7 12.6-12.3 26.1-31.7 26.1-18.5 0-29.1-11.5-29.1-31.5 0-24.9 13.2-50 38.5-50 11.4 0 25.2 3.5 26.1 20.4l.1 2.4h25.3v-2.6c-.2-26.1-19.2-41.6-50.9-41.6-31.1 0-64.6 22.6-64.6 72.1 0 31.8 21.2 52.3 53.9 52.3 8 0 19.5-3 28.5-11.1v8.4h17.7l14.1-65.1h-55.2z" class="st0" id="Fill-19"/><path class="st0" id="Fill-18" d="m-398.3 202.5-25.2 119h25.5l25.3-119z"/><linearGradient gradientTransform="matrix(30.5947 0 0 -28.9762 13346.123 11653.677)" y2="391.919" x2="-454.18" y1="395.627" x1="-458.022" gradientUnits="userSpaceOnUse" id="Fill-14_1_"><stop style="stop-color:#fbad3e" offset="0"/><stop style="stop-color:#e8262b" offset="1"/></linearGradient><path d="M-683.1 203c6.2 8.7 131.3 102.6 131.6 102.9-.4-.5-65.5-92.3-90.3-121.2-2.9-3.3-7.3-4.7-12.1-4.7-15.5 0-35.8 13.8-29.2 23" id="Fill-14" style="fill:url(#Fill-14_1_)"/><linearGradient gradientTransform="matrix(57.5853 0 0 -11.3174 25463.371 4575.124)" y2="378.276" x2="-451.877" y1="378.4" x1="-455.909" gradientUnits="userSpaceOnUse" id="Fill-11_1_"><stop style="stop-color:#fbad3e" offset="0"/><stop style="stop-color:#e8262b" offset="1"/></linearGradient><path d="M-770.7 268.2c-17.6.7-43.4 21.5-36.3 45.2 1.2 3.9 5.7 3.8 5.7 3.8l243.2.2s-155.5-37.2-207.7-48.7c-1-.2-2.1-.4-3.2-.4h-1.7z" id="Fill-11" style="fill:url(#Fill-11_1_)"/><linearGradient gradientTransform="matrix(15.7174 0 0 -31.2429 6667.395 12561.65)" y2="392.444" x2="-460.743" y1="396.719" x1="-461.589" gradientUnits="userSpaceOnUse" id="Fill-8_1_"><stop style="stop-color:#fbad3e" offset="0"/><stop style="stop-color:#e8262b" offset="1"/></linearGradient><path d="M-614.5 174.9c-.8 3.6 5.5 15 7.9 19.4 25.5 44.8 59.9 106.8 60.3 107.4-.2-1-23.7-102-31.3-129.2-1.3-4.5-8.1-6.5-15.5-6.5-9.6 0-20.2 3.3-21.4 8.9" id="Fill-8" style="fill:url(#Fill-8_1_)"/><linearGradient gradientTransform="matrix(7.7672 0 0 -31.2403 3103.657 12560.586)" y2="392.406" x2="-468.812" y1="396.659" x1="-468.795" gradientUnits="userSpaceOnUse" id="Fill-6_1_"><stop style="stop-color:#fbad3e" offset="0"/><stop style="stop-color:#e8262b" offset="1"/></linearGradient><path d="m-554.4 172.9 13.7 128.8s14.2-96 19.9-126.6c1.1-5.8-9.8-9.1-19.5-9.1-7.7 0-14.7 2.1-14.1 6.9" id="Fill-6" style="fill:url(#Fill-6_1_)"/><linearGradient gradientTransform="matrix(45.7283 0 0 -23.0431 20140.424 9275.655)" y2="390.781" x2="-452.531" y1="391.778" x1="-456.479" gradientUnits="userSpaceOnUse" id="Fill-4_1_"><stop style="stop-color:#fbad3e" offset="0"/><stop style="stop-color:#e8262b" offset="1"/></linearGradient><path d="M-752.9 246.5c.6 3.8 8.5 6.2 8.5 6.2l189.9 58.2s-112.2-70.7-147.3-97.9c-2-1.5-4.7-2.2-7.9-2.2-16.7 0-45.9 19.4-43.2 35.7" id="Fill-4" style="fill:url(#Fill-4_1_)"/></g></g></g></svg>