<svg xmlns="http://www.w3.org/2000/svg" viewBox="0 0 426.5 100" xml:space="preserve"><path d="M385.8 45.1c0-2-.5-4.9-2.9-7.8-4.7-4.5-12.2-4.3-16.6.5-2 2.5-2.5 4.9-2.9 7.8h22.5v-.5zM402 66.2c-1.8 3-3.9 5.8-6.4 8.3-4.9 4.9-12.3 8.3-21.1 8.3-16.7 0-28.4-10.8-28.4-29.4 0-13.7 6.9-30.9 28.9-30.9 2.9 0 12.7 0 19.6 7.8 7.4 7.8 7.8 19.1 8.3 25.5h-40.2c0 6.9 3.9 13.7 12.7 13.7 9.3 0 12.3-5.9 14.7-9.8.1.1 11.9 6.5 11.9 6.5m-95.1-36.8c1.5-2 2.9-2.9 5.9-4.9 2.5-.5 5.9-1.5 9.8-1.5 3.4 0 7.4 0 9.8 2 6.4 3.4 7.8 8.3 7.8 17.2v38.2h-16.7V40.2c-1.5-2.9-4.4-3.9-7.4-3.9-8.8 0-8.8 6.9-8.8 13.7v30.4h-16.7V24.5h16.7v4.9zm-27-19.6c0 4.9-3.9 9.3-8.8 9.3s-8.8-3.9-8.8-9.3c0-4.9 3.9-8.8 8.8-8.8s8.8 3.9 8.8 8.8m-16.7 14.7h16.2v55.9h-16.2V24zM252 0v80.4h-16.7V0zm-41.2 45.1c0-2.5-.5-5.9-2.9-8.3-4.7-4.5-12.2-4.3-16.6.5-2 2.5-2.5 4.9-2.9 7.8zm16.7 20.6c-1.9 3.2-4.2 6.2-6.9 8.8-4.9 4.9-12.3 8.3-21.1 8.3-16.7 0-28.4-10.8-28.4-29.4.5-13.2 7.4-30.9 29.9-30.9 2.9 0 12.7 0 19.6 7.8 7.8 7.8 7.8 19.1 8.3 25.5h-40.2c0 6.9 3.9 13.7 12.7 13.7 9.3 0 12.3-5.9 14.7-9.8l12.3 6.4zm-64.8-3-1.5 2c-3.4 3.9-7.4 3.9-8.3 3.9-8.8 0-12.3-9.3-12.3-16.7 0-6.9 2.9-17.2 11.8-17.2 2.5 0 4.9 1 5.9 2 2.5 1.5 3.4 3.4 4.4 4.9 2-4.4 3.9-8.8 7.4-12.3-5-4.5-11.4-6.9-18.1-6.9-18.6 0-27.9 14.2-27.9 30.4 0 23 17.2 29.4 27.9 29.4 6.7 0 13.1-2.4 18.1-6.9-3.4-3.4-5.7-7.6-6.9-12.3zM117.6 9.8c0 4.9-3.9 9.3-8.8 9.3s-8.8-3.9-8.8-9.3c0-4.9 3.9-8.8 8.8-8.8s8.8 3.9 8.8 8.8m-17.1 14.7h16.2v55.9h-16.2V24zm-23 5.4c3.4-2.9 7.4-5.4 16.2-6.4v14.7l-5.4 1C80.5 40.7 78 41.7 78 49v31.4H61.3V24h16.2v6.4zm-50 5.4c-3.3 0-6.5 1.6-8.3 4.4-2.5 2.9-3.4 7.8-3.4 13.2 0 7.4 2 11.8 3.9 14.2 2 2 4.9 2.9 7.4 2.9 8.3-.5 12.3-9.3 12.3-18.1-.5-6.9-2.5-15.2-9.8-16.7H27h.5zm-12.8-5.4c0-1 1-1.5 1.5-2C19.1 25 24 23 30.4 23c13.7 0 24.5 10.3 24.5 29.4 0 11.3-5.4 29.4-24.5 29.4-6.4 0-9.8-2.5-13.7-4.9v23H0V24.5h14.7z" style="fill:#fff"/><path d="M414.2 5.9c4.4-.1 8.5 2.1 10.8 5.9 1 2 1.5 3.9 1.5 6.4 0 2-.5 4.4-1.5 5.9-3.2 6-10.6 8.2-16.6 5-2.1-1.1-3.8-2.9-5-5-1-1.5-1.5-3.4-1.5-5.9 0-2 .5-4.4 1.5-5.9 2.2-4 6.3-6.4 10.8-6.4m0 21.6c1.5 0 3.4-.5 4.9-1.5 2.7-1.7 4.3-4.7 4.4-7.8 0-3.3-1.9-6.4-4.9-7.8-1-1-2.5-1.5-4.4-1.5-3.3 0-6.4 1.9-7.8 4.9-1 1-1.5 2.9-1.5 4.9.3 4.9 4.4 8.8 9.3 8.8m4.9-11.3v2c-.5 1-1 1.5-2 1.5l2.5 3.9h-2.9l-1.5-3.4h-3.4v3.4h-2.5V12.3h4.9c1.5 0 2.5 0 3.4 1 1 .4 1.5 1.4 1.5 2.9m-6.8 1.9h2.5l1.5-.5v-3.5h-4.4v3.4z" style="fill-rule:evenodd;clip-rule:evenodd;fill:#fff"/></svg>