<svg xmlns="http://www.w3.org/2000/svg" viewBox="0 0 940.925 200" style="max-height:500px" width="940.925" height="200"><g fill="none"><path fill="#008CC1" d="M864.756 83.656c-.773 0-1.236-.473-1.236-1.261 0-3.153.458-5.366 1.078-7.578 2.319-6.943 8.341-11.047 16.53-11.047s14.373 4.104 16.535 11.047c.621 2.055 1.083 4.425 1.083 7.578 0 .788-.463 1.261-1.236 1.261zm17.613 63.612c18.229 0 32.754-6.627 42.179-16.886.773-.793.773-2.055-.153-3.001l-13.443-12.944c-.773-1.104-1.856-.788-2.935 0-5.717 5.366-12.827 8.997-22.714 8.997-10.198 0-17.766-4.577-20.395-13.417a22 22 0 0 1-1.236-5.681c0-.788.463-1.261 1.236-1.261h59.95c1.389 0 2.314-.793 2.314-2.055 0-17.206-1.236-24.464-3.245-31.096-5.717-17.837-20.853-28.411-42.794-28.411-21.016 0-36.772 10.416-42.489 28.569-2.009 6.317-3.245 13.58-3.245 24.311 0 10.416 1.389 17.837 3.555 23.991 5.407 18.152 20.853 28.889 43.415 28.889m-76.169-2.365c1.236 0 2.009-.793 2.009-2.055v-76.24c0-.788.458-1.261 1.236-1.261h16.225c1.231 0 2.004-.788 2.004-2.05V45.927c0-1.261-.773-2.05-2.009-2.05h-16.067c-.773 0-1.236-.478-1.236-1.266v-5.05c0-8.524 2.319-10.889 11.281-10.889h6.332c1.236 0 2.009-.788 2.009-2.055V4.893c0-1.261-.773-2.05-2.009-2.05h-11.281c-23.482 0-34.763 10.259-34.763 34.88v4.735c0 .788-.458 1.266-1.236 1.266h-6.18c-1.236 0-2.009.788-2.009 2.05v17.364c0 1.261.773 2.05 2.009 2.05h6.18c.773 0 1.236.473 1.236 1.266v76.24c0 1.256.773 2.05 2.009 2.05h24.261zm-95.639-19.576c-9.425 0-14.368-3.626-14.368-10.732 0-7.894 5.559-11.52 17.613-11.52h13.905c.773 0 1.236.473 1.236 1.261v6.943c0 9.47-6.18 14.048-18.386 14.048m43.567 19.576c1.236 0 2.009-.793 2.009-2.055V78.132c0-25.252-11.586-36.62-44.03-36.62-16.377 0-28.431 3.947-36.772 10.101-1.083.631-1.236 1.739-.621 3.001l9.272 16.576c.615 1.104 1.699 1.261 2.624.473 4.639-3.631 12.054-6.475 22.094-6.475 15.762 0 20.243 4.425 20.243 13.732v3.789c0 .788-.463 1.261-1.236 1.261h-17.613c-24.566 0-41.096 10.264-41.096 32.673 0 21.468 15.294 30.939 32.907 30.939 13.443 0 22.094-4.42 27.19-11.047h.153v6.627c0 1.266.773 2.055 2.014 2.055h22.862zm-150.177 2.365c35.999 0 54.696-18.941 54.696-44.671s-15.141-39.142-43.725-43.089l-7.416-1.104c-15.914-2.37-21.631-7.578-21.631-15.63 0-8.997 6.337-15.467 18.539-15.467 11.434 0 21.631 3.789 32.297 10.889 1.078.631 2.004.473 2.935-.631l12.512-18.941c1.083-1.424.773-2.365-.463-3.153C640.109 6.321 622.806.635 604.415.635c-30.125 0-49.284 17.364-49.284 43.41 0 25.095 15.757 38.669 44.035 42.616l7.416 1.104c16.53 2.37 21.473 7.578 21.473 15.945 0 10.101-8.189 16.886-22.709 16.886-14.678 0-27.195-7.1-36.467-14.678-1.078-.788-2.314-.788-3.087.158l-15.604 18.157c-1.083 1.256-.621 2.68.153 3.469 10.818 10.732 31.981 19.571 53.612 19.571"/><path fill="#FFF" d="M533.037 144.902c1.236 0 2.009-.793 2.009-2.055V45.932c0-1.261-.773-2.05-2.009-2.05h-24.566c-1.236 0-2.009.788-2.009 2.05v96.915c0 1.261.773 2.055 2.009 2.055zm0-117.122c1.236 0 2.009-.788 2.009-2.05V4.893c0-1.261-.773-2.05-2.009-2.05h-24.566c-1.236 0-2.009.788-2.009 2.05v20.68c0 1.261.773 2.05 2.009 2.05h24.566zm-42.642 118.384c1.236 0 2.009-.788 2.009-2.055v-20.67c0-1.261-.773-2.05-2.009-2.05h-4.323c-5.874 0-8.657-2.685-8.657-9.633V4.893c0-1.261-.773-2.05-2.009-2.05H450.84c-1.236 0-2.009.788-2.009 2.05v109.071c0 22.414 8.809 32.195 30.745 32.195zm-103.054-23.518c-7.573 0-12.827-3.789-15.141-10.894-1.236-3.942-1.856-8.362-1.856-17.359 0-9.002.621-13.417 1.856-17.364 2.314-7.263 7.568-10.894 15.141-10.894 7.726 0 13.132 3.474 15.294 10.894 1.236 3.947 1.856 8.367 1.856 17.364s-.621 13.417-1.856 17.359c-2.162 7.105-7.568 10.894-15.294 10.894m-19.007 59.98c1.236 0 2.009-.788 2.009-2.055v-44.976h.153c4.486 6.943 12.827 11.678 25.959 11.678 16.53 0 28.431-8.367 33.527-24.311 2.472-7.883 3.555-15.624 3.555-28.563 0-13.102-1.083-20.68-3.555-28.574-5.091-16.103-16.993-24.311-33.522-24.311-13.132 0-21.473 4.735-25.954 11.683h-.153v-7.27c0-1.261-.778-2.05-2.014-2.05h-24.566c-1.236 0-2.009.788-2.009 2.05v134.639c0 1.266.773 2.055 2.009 2.055zm-48.511-37.723c1.236 0 2.009-.793 2.009-2.055v-63.77c0-22.414-12.054-37.566-35.384-37.566-13.905 0-23.793 4.735-31.056 12.786h-.153c-5.717-8.367-14.526-12.786-26.575-12.786-12.669 0-21.011 5.208-25.491 11.525h-.153v-7.11c0-1.261-.778-2.05-2.014-2.05h-24.871c-1.236 0-2.009.788-2.009 2.05v96.915c0 1.261.773 2.055 2.009 2.055h24.566c1.236 0 2.009-.793 2.009-2.055V84.759c0-11.052 5.712-18.31 15.604-18.31 10.198 0 15.294 7.258 15.294 18.31v58.083c0 1.261.773 2.055 2.009 2.055h24.566c1.236 0 2.009-.793 2.009-2.055V84.759c0-11.052 5.559-18.31 15.294-18.31 10.198 0 15.604 7.258 15.604 18.31v58.083c0 1.261.773 2.055 2.009 2.055zm-168.41 0c1.236 0 2.009-.793 2.009-2.055V45.932c0-1.261-.773-2.05-2.009-2.05h-24.566c-1.236 0-2.009.788-2.009 2.05v96.915c0 1.261.773 2.055 2.009 2.055zm0-117.122c1.236 0 2.009-.788 2.009-2.05V4.893c0-1.261-.773-2.05-2.009-2.05h-24.566c-1.236 0-2.009.788-2.009 2.05v20.68c0 1.261.773 2.05 2.009 2.05h24.566zM55.469 147.267c35.999 0 54.538-18.941 54.538-44.671S94.866 63.454 66.282 59.507l-7.263-1.104c-15.914-2.37-21.631-7.578-21.631-15.63 0-8.997 6.337-15.467 18.696-15.467 11.434 0 21.631 3.789 32.292 10.889 1.083.631 2.009.473 2.935-.631l12.512-18.941c1.083-1.424.778-2.365-.458-3.153C91.774 6.315 74.471.629 56.085.629c-30.13 0-49.284 17.364-49.284 43.41 0 25.095 15.757 38.669 44.03 42.616l7.416 1.104c16.53 2.37 21.479 7.578 21.479 15.945 0 10.101-8.189 16.886-22.714 16.886-14.678 0-27.19-7.1-36.462-14.678-1.078-.788-2.314-.788-3.087.158L1.701 124.227c-1.078 1.256-.615 2.68.153 3.469 10.818 10.732 31.986 19.571 53.617 19.571"/><path fill="#52555E" d="M922.229 54.457c-.153 0-.305-.158-.305-.315v-9.791c0-.158 0-.158-.153-.158h-3.092c-.153 0-.31-.158-.31-.315v-1.104c0-.153.153-.315.305-.315h8.657c.153 0 .305.158.305.315v1.109c0 .153-.153.315-.305.315h-3.092c-.153 0-.153 0-.153.153v9.791c0 .153-.153.315-.305.315zm16.687 0c-.153 0-.305-.158-.305-.315v-7.421l-2.63 5.681c-.153.158-.153.32-.463.32h-.926c-.153 0-.31-.163-.31-.32l-2.63-5.681v7.421c0 .153-.153.315-.305.315h-1.236c-.153 0-.31-.158-.31-.315V42.774c0-.153.153-.315.305-.315h1.241c.153 0 .305.158.458.315l3.56 7.736h.153l3.398-7.731c.153-.163.305-.32.463-.32h1.236c.153 0 .31.158.31.315v11.367c0 .153-.153.315-.305.315z"/></g></svg>